<?xml version="1.0" standalone="no"?>
<!DOCTYPE svg PUBLIC "-//W3C//DTD SVG 20010904//EN"
 "http://www.w3.org/TR/2001/REC-SVG-20010904/DTD/svg10.dtd">
<svg version="1.0" xmlns="http://www.w3.org/2000/svg"
 width="512.000000pt" height="512.000000pt" viewBox="0 0 512.000000 512.000000"
 preserveAspectRatio="xMidYMid meet">
<metadata>
Created by potrace 1.14, written by Peter Selinger 2001-2017
</metadata>
<g transform="translate(0.000000,512.000000) scale(0.100000,-0.100000)"
fill="#000000" stroke="none">
<path d="M2510 4863 c-165 -25 -334 -125 -508 -299 -125 -127 -169 -189 -265
-379 -127 -250 -129 -259 -128 -587 0 -272 2 -295 57 -501 12 -48 41 -135 64
-193 23 -58 39 -112 36 -119 -2 -7 -85 -53 -183 -101 l-178 -87 -111 -112
c-212 -214 -270 -327 -388 -750 -46 -166 -100 -399 -137 -593 l-22 -112 54
-58 c99 -105 285 -269 295 -260 2 3 -7 88 -20 189 -37 267 -74 534 -86 609
-17 115 -14 148 19 181 l29 29 1496 0 c1121 0 1501 -3 1521 -12 14 -6 28 -22
32 -36 5 -20 -30 -323 -101 -875 -7 -48 -10 -90 -8 -92 2 -2 11 3 20 11 9 8
42 35 72 60 74 63 217 202 247 240 l23 31 -35 179 c-84 425 -175 725 -289 953
-82 165 -120 210 -287 337 -138 105 -176 129 -289 182 -52 24 -96 45 -98 47
-1 1 23 62 53 135 71 171 88 226 125 417 30 152 32 165 27 348 -5 196 -9 219
-72 425 -20 66 -136 300 -173 350 -114 153 -289 313 -405 370 -134 65 -272 91
-387 73z m-331 -782 c16 -16 18 -26 10 -67 -5 -27 -20 -59 -33 -74 -51 -54
-62 -104 -14 -59 18 16 36 29 40 29 4 0 33 23 63 50 30 28 60 50 66 50 16 0
59 -51 59 -70 0 -9 -12 -23 -26 -30 -14 -8 -38 -32 -52 -54 -20 -30 -41 -45
-77 -59 -48 -18 -95 -52 -95 -69 0 -4 17 1 37 12 23 12 57 20 86 20 34 0 62 8
100 30 78 44 91 41 117 -26 11 -31 18 -59 15 -62 -3 -3 -24 -7 -47 -9 -42 -4
-125 -52 -135 -79 -3 -8 -11 -14 -19 -14 -8 0 -14 -5 -14 -11 0 -7 11 -9 33
-5 17 4 57 9 88 12 l56 6 60 -56 c33 -31 64 -56 67 -56 4 0 27 19 51 41 82 77
69 74 215 53 l45 -6 -49 43 c-66 59 -84 68 -133 69 -49 0 -49 2 -24 75 11 30
25 51 35 53 9 2 43 -10 76 -27 39 -21 74 -31 102 -31 24 0 61 -9 83 -20 48
-25 48 -25 35 1 -7 11 -40 33 -75 49 -44 20 -71 39 -87 63 -12 19 -35 43 -50
53 -32 22 -35 40 -12 72 19 28 55 28 80 1 10 -12 39 -35 64 -52 25 -16 57 -41
73 -55 38 -36 34 -14 -9 49 -41 60 -61 134 -43 156 6 7 24 13 38 13 41 0 79
-46 91 -111 13 -70 46 -156 52 -138 3 8 3 37 1 64 -3 34 0 56 9 69 14 17 17
15 57 -30 39 -44 42 -52 37 -87 -6 -35 -5 -37 13 -25 33 20 38 -2 6 -24 -53
-37 -180 -173 -207 -221 -71 -126 -98 -228 -99 -365 0 -112 15 -169 60 -235
17 -25 31 -49 30 -54 0 -4 -27 -29 -59 -55 -51 -42 -61 -55 -80 -115 -30 -90
-47 -123 -66 -123 -31 0 -67 36 -111 112 -25 43 -47 78 -49 78 -2 0 -4 -65 -4
-145 l0 -145 50 0 c41 0 55 -5 84 -31 22 -19 38 -43 42 -64 7 -41 -15 -123
-48 -170 -21 -32 -27 -35 -77 -35 l-54 0 5 52 c5 45 11 57 43 85 21 18 44 33
52 33 23 0 14 29 -12 36 -39 10 -66 -1 -123 -51 -31 -26 -59 -42 -65 -38 -7 4
-36 26 -65 50 -55 45 -105 56 -130 31 -18 -18 -15 -28 8 -28 11 0 37 -15 57
-34 32 -29 37 -39 37 -82 l1 -49 -55 0 -55 0 -29 57 c-69 139 -28 238 99 238
l45 0 0 146 c0 86 -4 143 -9 140 -5 -4 -25 -35 -45 -70 -32 -57 -85 -116 -104
-116 -25 1 -45 34 -73 125 -18 58 -26 70 -79 113 -32 26 -59 53 -59 60 -1 7
10 28 23 45 57 77 61 92 60 247 0 137 -2 150 -32 228 -51 135 -156 272 -277
358 -37 26 -26 44 11 19 27 -17 27 -17 21 6 -19 83 -19 83 18 127 20 23 42 42
49 42 18 0 40 -82 32 -122 -3 -18 -2 -39 3 -46 5 -9 16 14 30 70 35 132 41
147 68 168 32 25 48 25 72 1z m-308 -332 l20 -20 -20 -33 c-12 -18 -21 -35
-21 -38 0 -2 22 -5 48 -5 65 -1 87 -9 100 -37 12 -27 8 -34 -37 -66 l-34 -23
24 -9 c13 -5 41 -7 61 -4 31 5 39 3 48 -15 15 -28 6 -49 -22 -49 -13 -1 -34
-7 -47 -14 l-25 -14 35 -7 c19 -5 46 -8 61 -7 19 2 28 -4 33 -19 9 -27 -1 -36
-50 -42 -22 -3 -58 -10 -80 -15 -36 -8 -38 -9 -15 -15 14 -3 45 -8 69 -12 57
-7 81 -21 81 -45 0 -18 -7 -20 -90 -20 -49 0 -90 -4 -90 -9 0 -11 62 -36 111
-45 52 -9 67 -52 33 -94 -1 -2 -36 12 -78 32 -42 19 -76 31 -76 26 0 -5 23
-28 50 -51 42 -35 50 -48 50 -75 0 -27 -5 -35 -25 -40 -37 -9 -66 1 -108 38
-23 21 -40 46 -43 66 -6 32 -6 33 20 26 l27 -6 -20 33 c-10 19 -22 50 -26 69
-4 19 -16 49 -26 66 -20 33 -26 84 -10 84 5 0 23 -8 40 -17 43 -25 50 -8 13
30 -18 18 -32 38 -32 44 0 6 19 14 43 18 92 14 97 26 17 45 -28 7 -52 16 -55
20 -3 5 10 20 27 35 56 47 55 55 -2 48 -63 -7 -66 0 -46 100 9 42 16 79 16 82
0 13 32 3 51 -16z m1443 -62 c25 -109 25 -110 -34 -105 -27 3 -50 1 -50 -3 0
-4 16 -20 35 -35 19 -14 35 -32 35 -39 0 -7 -23 -18 -52 -26 -29 -8 -52 -18
-51 -24 0 -5 23 -14 49 -18 68 -11 74 -21 36 -60 -18 -18 -32 -36 -32 -40 0
-13 37 -7 50 8 37 44 55 -14 22 -70 -10 -16 -24 -50 -31 -75 -7 -25 -19 -54
-27 -65 -19 -27 -18 -34 6 -28 24 6 24 4 4 -47 -20 -49 -70 -83 -116 -78 -30
3 -33 6 -36 39 -3 31 2 39 48 78 27 23 50 46 50 51 0 5 -31 -6 -69 -25 -38
-19 -74 -35 -80 -35 -6 0 -16 11 -22 24 -18 38 1 57 82 80 100 29 101 44 2 44
-43 0 -84 1 -90 1 -20 1 -15 39 6 51 11 5 35 10 55 10 19 0 47 5 63 12 l28 12
-25 3 c-14 2 -34 8 -45 13 -11 5 -36 11 -55 12 -30 3 -35 7 -35 28 0 22 4 25
42 27 23 0 50 6 60 11 16 10 15 12 -10 21 -16 6 -35 11 -43 11 -20 0 -30 29
-17 49 7 11 22 15 49 13 22 -2 50 1 62 5 23 9 23 10 -17 37 -46 32 -50 47 -21
76 19 19 57 25 118 20 l24 -2 -24 42 -23 41 24 20 c13 11 28 16 32 12 4 -4 15
-39 23 -76z"/>
<path d="M2243 3265 c4 -29 16 -49 42 -71 30 -27 34 -36 29 -62 -5 -23 -1 -35
15 -51 26 -26 53 -27 76 -1 23 26 27 25 47 -7 l17 -28 1 31 c0 51 -42 97 -131
144 -32 16 -67 42 -79 57 l-23 28 6 -40z"/>
<path d="M2862 3270 c-6 -11 -35 -31 -64 -46 -104 -53 -138 -92 -138 -156 l1
-33 14 33 15 34 26 -21 c34 -27 58 -27 85 0 16 16 19 28 15 54 -5 27 -2 35 20
49 33 22 70 106 46 106 -4 0 -13 -9 -20 -20z"/>
</g>
</svg>
